<?xml version="1.0" encoding="UTF-8"?>
<svg width="448px" height="101px" viewBox="0 0 448 101" version="1.1" xmlns="http://www.w3.org/2000/svg" xmlns:xlink="http://www.w3.org/1999/xlink">
    <!-- Generator: Sketch 47 (45396) - http://www.bohemiancoding.com/sketch -->
    <title>Page 1</title>
    <desc>Created with Sketch.</desc>
    <defs></defs>
    <g id="Page-1" stroke="none" stroke-width="1" fill="none" fill-rule="evenodd">
        <g id="Desktop" transform="translate(-496.000000, -134.000000)">
            <g id="Page-1" transform="translate(496.000000, 134.000000)">
                <path d="M48.0297087,71 C5.0053822,47.0569855 32.6055077,16.2578056 48.0297087,34.5455552 C63.2393884,16.4507136 91.0578369,47.0569855 48.0297087,71 Z" id="Fill-1" fill="#AB55CB"></path>
                <path d="M48.5000058,0 L50.9958547,0.0633938371 C77.3176413,2.18056906 96.3316458,22.1976263 97,48.7779325 C96.7894847,57.6089403 94.7294175,66.5869646 89.9121895,74.0775344 C90.5861159,77.7303719 91.2599267,81.383221 91.9337837,85.0360701 C91.9338762,85.036349 91.9338762,85.036349 91.9338531,85.036593 C93.0417924,91.0424259 93.5342085,93.7116759 94.1497548,97.0481937 C94.6463096,99.7392539 91.8854958,101.853379 89.4358539,100.65791 C87.053459,99.4953248 85.1473419,98.5652038 80.8590842,96.4727587 C80.8583212,96.4723764 80.8583212,96.4723764 80.8575351,96.471943 C77.647437,94.9056284 74.437339,93.3392998 71.2273912,91.772675 C64.3200274,95.7629313 56.4198198,97.080166 48.583946,97.4914277 L48.5000058,97.4925408 C21.7142532,97.4926059 3.6852892e-05,75.668155 0,48.7462704 C3.6852892e-05,21.8245136 21.7142532,6.97146302e-05 48.5000751,0 L48.5000058,0 Z M48.5000058,6.67299145 C25.3810341,6.67306116 6.63932504,25.5099078 6.63928805,48.7462704 C6.94478608,72.3750683 25.1461842,90.2257283 48.4570704,90.8184374 C55.881555,90.7573802 62.9537011,88.744261 69.4211331,85.1569204 C70.3830064,84.5759884 71.5717531,84.5227264 72.5811398,85.0153068 C75.6856103,86.5304729 78.1699219,87.7427522 83.7571317,90.4689951 C83.7579525,90.4694297 83.7579525,90.4694297 83.7586808,90.4698108 C85.6483821,91.3918472 84.7600908,90.958393 86.4235431,91.7701548 C85.6645783,87.6554811 86.0038304,89.4945089 85.4058098,86.2530784 C85.4058329,86.2528228 85.4058329,86.2528228 85.4057404,86.2524858 C84.2748421,80.1216999 83.7720909,77.3964272 83.1435854,73.9901936 C82.9847684,73.1291831 83.1690877,72.23988 83.6567988,71.5141391 C87.9813678,65.0799202 90.2819959,57.0872308 90.3608611,48.7462704 C89.7576961,25.0980686 73.6968015,9.07540408 50.6541517,6.72770582 L48.5000058,6.67299145 Z" id="Fill-2" fill="#000000"></path>
                <path d="M141.520394,69 L141.520394,46.3175757 L148.020424,46.3175757 L148.020424,37.6085725 L141.520394,37.6085725 L141.520394,36.0487471 C141.520394,33.8389953 143.112272,32.6041388 145.035742,32.6041388 C146.494982,32.6041388 147.423558,32.9940923 148.219379,33.8389953 L152,28.1196508 C149.811257,25.9098991 146.229591,25 142.78068,25 C136.081695,25 131.30618,29.4195034 131.30618,36.0487471 L131.30618,37.6085725 L126,37.6085725 L126,46.3175757 L131.30618,46.3175757 L131.30618,69 L141.520394,69 Z" id="Fill-3" fill="#000000"></path>
                <path d="M181,69.2189393 L181,49.562133 C181,39.7988163 173.810598,37 166.159551,37 C161.278723,37 155.804234,38.4319485 151.714914,41.8816526 L155.34259,48.1952652 C157.914844,46.0473367 161.212773,44.875734 164.378688,44.875734 C168.468008,44.875734 170.842531,46.6982244 170.842531,49.4319485 L170.842531,53.2071022 C168.92977,50.8639085 165.170195,49.562133 160.94886,49.562133 C156.068031,49.562133 150,52.0354996 150,59.6508878 C150,66.7455611 156.068031,70 160.94886,70 C165.038297,70 168.86382,68.437867 170.842531,66.0946733 L170.842531,69.2189393 L181,69.2189393 Z M165.170195,63.4260415 C162.465926,63.4260415 160.091519,62.2544389 160.091519,59.7810723 C160.091519,57.3076941 162.465926,56.1360915 165.170195,56.1360915 C167.412703,56.1360915 169.787227,56.9171637 170.842531,58.3491122 L170.842531,61.1479285 C169.787227,62.6449693 167.412703,63.4260415 165.170195,63.4260415 Z" id="Fill-4" fill="#000000"></path>
                <polygon id="Fill-5" fill="#000000" points="207.426503 70 220 38 209.213281 38 201.933832 58.2732903 194.720551 38 184 38 196.573497 70"></polygon>
                <path d="M236.967746,70 C247.677499,70 254,62.3195311 254,53.4674596 C254,44.6153882 247.677499,37 236.967746,37 C226.387124,37 220,44.6153882 220,53.4674596 C220,62.3195311 226.387124,70 236.967746,70 Z M236.967746,61.1479285 C232.645117,61.1479285 230.25808,57.6982244 230.25808,53.4674596 C230.25808,49.3017756 232.645117,45.8520715 236.967746,45.8520715 C241.354883,45.8520715 243.806428,49.3017756 243.806428,53.4674596 C243.806428,57.6982244 241.354883,61.1479285 236.967746,61.1479285 Z" id="Fill-6" fill="#000000"></path>
                <path d="M291,69.2242469 L291,38 L281.054156,38 L281.054156,58.169696 C279.891688,59.6565638 277.954202,61.2080815 275.112549,61.2080815 C271.88333,61.2080815 269.945844,59.915152 269.945844,56.1656633 L269.945844,38 L260,38 L260,60.2383901 C260,65.9919231 263.164644,70 270.26872,70 C275.5,70 279.11667,67.6727291 281.054156,65.4747467 L281.054156,69.2242469 L291,69.2242469 Z" id="Fill-7" fill="#000000"></path>
                <path d="M308.098348,69 L308.098348,49.1290377 C309.409888,47.3871009 312.885202,46.2903255 315.508167,46.2903255 C316.557329,46.2903255 317.409795,46.4193532 318,46.5483924 L318,37 C314.196743,37 310.196673,39.1290313 308.098348,41.6451685 L308.098348,37.8387086 L298,37.8387086 L298,69 L308.098348,69 Z" id="Fill-8" fill="#000000"></path>
                <path d="M337.967803,70 C348.677406,70 355,62.3195311 355,53.4674596 C355,44.6153882 348.677406,37 337.967803,37 C327.387102,37 321,44.6153882 321,53.4674596 C321,62.3195311 327.387102,70 337.967803,70 Z M337.967803,61.1479285 C333.645189,61.1479285 331.258046,57.6982244 331.258046,53.4674596 C331.258046,49.3017756 333.645189,45.8520715 337.967803,45.8520715 C342.354811,45.8520715 344.806462,49.3017756 344.806462,53.4674596 C344.806462,57.6982244 342.354811,61.1479285 337.967803,61.1479285 Z" id="Fill-9" fill="#000000"></path>
                <path d="M374.967689,70 C385.677406,70 392,62.3195311 392,53.4674596 C392,44.6153882 385.677406,37 374.967689,37 C364.387102,37 358,44.6153882 358,53.4674596 C358,62.3195311 364.387102,70 374.967689,70 Z M374.967689,61.1479285 C370.645074,61.1479285 368.258046,57.6982244 368.258046,53.4674596 C368.258046,49.3017756 370.645074,45.8520715 374.967689,45.8520715 C379.354811,45.8520715 381.806462,49.3017756 381.806462,53.4674596 C381.806462,57.6982244 379.354811,61.1479285 374.967689,61.1479285 Z" id="Fill-10" fill="#000000"></path>
                <path d="M448,69 L448,46.3737333 C448,39.9737356 444.325447,37 438.485574,37 C433.498615,37 429.364801,39.8444358 427.527524,42.5595947 C426.215234,38.8747444 423.065551,37 418.538084,37 C413.551125,37 409.48292,39.7797973 408.104904,41.5898918 L408.104904,37.7757531 L398,37.7757531 L398,69 L408.104904,69 L408.104904,48.830304 C409.154876,47.5373745 411.057761,45.7919185 413.747951,45.7919185 C416.832025,45.7919185 417.94749,47.6020129 417.94749,49.9939337 L417.94749,69 L428.05251,69 L428.05251,48.830304 C429.036757,47.5373745 431.005251,45.7919185 433.761166,45.7919185 C436.779515,45.7919185 437.960588,47.6020129 437.960588,49.9939337 L437.960588,69 L448,69 Z" id="Fill-11" fill="#000000"></path>
            </g>
        </g>
    </g>
</svg>