<?xml version="1.0" encoding="UTF-8"?>
<!DOCTYPE svg PUBLIC "-//W3C//DTD SVG 1.1//EN" "http://www.w3.org/Graphics/SVG/1.1/DTD/svg11.dtd">
<svg version="1.1" xmlns="http://www.w3.org/2000/svg" xmlns:xlink="http://www.w3.org/1999/xlink" x="0" y="0" width="512" height="384" viewBox="0, 0, 1024, 768">
  <defs>
    <linearGradient id="Gradient_1" gradientUnits="userSpaceOnUse" x1="-294.016" y1="404.414" x2="-249.086" y2="358.439">
      <stop offset="0" stop-color="#4D7BFF"/>
      <stop offset="1" stop-color="#C881FF"/>
    </linearGradient>
    <linearGradient id="Gradient_2" gradientUnits="userSpaceOnUse" x1="741.651" y1="401.567" x2="786.581" y2="355.592">
      <stop offset="0" stop-color="#4D7BFF"/>
      <stop offset="1" stop-color="#C881FF"/>
    </linearGradient>
  </defs>
  <g id="Layer_1">
    <path d="M13.456,0 L518.728,0 L518.728,768 L13.456,768 L13.456,0 z" fill="#5C5C5C"/>
    <path d="M518.728,0 L1024,0 L1024,768 L518.728,768 L518.728,0 z" fill="#000000"/>
    <path d="M-505.272,0 L-0,0 L-0,768 L-505.272,768 L-505.272,0 z" fill="#FFFFFF"/>
    <g>
      <path d="M-353.084,360.667 C-343.739,360.667 -337.707,365.099 -337.707,374.298 L-337.707,395.438 L-338.927,396.67 L-347.448,396.67 L-348.668,395.438 L-348.668,394.704 C-351.241,396.785 -354.515,397.334 -357.713,397.483 C-364.427,397.483 -370.205,392.707 -370.205,385.41 C-370.205,377.904 -364.669,373.608 -357.713,373.608 C-354.479,373.592 -351.341,374.368 -348.668,376.218 L-348.668,374.433 C-348.668,371.88 -350.317,368.887 -354.001,368.887 C-357.204,368.887 -360.682,369.865 -363.191,372.214 L-365.083,371.915 L-368.303,367.654 L-368.048,366.124 C-364.013,362.533 -358.708,360.667 -353.084,360.667 z M-354.52,380.675 C-357.562,380.675 -360.028,382.75 -360.028,385.31 C-360.028,387.87 -357.562,389.946 -354.52,389.946 C-352.594,389.878 -350.716,389.061 -349.659,387.317 C-349.149,386.473 -349.081,386.2 -349.011,385.31 C-348.812,382.758 -351.478,380.675 -354.52,380.675 z" fill="#000000"/>
      <path d="M-324.757,361.48 L-323.615,362.279 L-316.303,381.969 L-308.991,362.279 L-307.849,361.48 L-298.657,361.48 L-297.525,363.171 L-310.542,395.897 L-311.674,396.67 L-320.866,396.67 L-321.998,395.897 L-335.014,363.171 L-333.882,361.48 L-324.757,361.48 z" fill="#000000"/>
      <path d="M-379.253,345.396 L-379.275,345.399 C-375.474,345.4 -371.134,347.445 -368.97,349.771 L-366.669,352.323 L-367.215,354.035 C-369.42,354.662 -371.293,356.064 -373.149,357.366 L-375.107,357.187 C-377.065,354.266 -382.191,355.587 -381.928,359.411 L-381.929,361.48 L-375.112,361.48 L-373.892,362.712 L-373.892,370.232 L-375.112,371.464 L-382.038,371.464 L-382.038,395.438 L-383.258,396.67 L-391.847,396.67 L-393.066,395.438 L-393.066,371.464 L-396.501,371.464 L-397.721,370.232 L-397.721,362.712 L-396.501,361.48 L-393.066,361.48 L-393.066,359.41 C-392.959,357.241 -392.638,354.782 -391.316,352.971 C-389.174,348.283 -384.154,345.644 -379.253,345.396 z" fill="#000000"/>
      <path d="M-270.877,355.545 L-272.061,355.575 C-284.54,356.561 -293.555,365.888 -293.872,378.272 C-293.772,382.387 -292.796,386.57 -290.512,390.06 C-290.831,391.762 -291.151,393.464 -291.47,395.166 C-291.47,395.166 -291.47,395.166 -291.47,395.166 C-291.995,397.965 -292.229,399.208 -292.521,400.763 C-292.756,402.017 -291.447,403.002 -290.286,402.445 C-289.156,401.903 -288.253,401.47 -286.219,400.495 C-286.219,400.495 -286.219,400.495 -286.219,400.495 C-284.697,399.765 -283.175,399.035 -281.653,398.305 C-278.378,400.164 -274.632,400.778 -270.917,400.97 L-270.877,400.97 C-258.178,400.97 -247.883,390.801 -247.883,378.258 C-247.883,365.714 -258.178,355.545 -270.877,355.545 z" fill="url(#Gradient_1)"/>
      <path d="M-275.654,370.52 C-273.512,370.517 -271.919,371.594 -270.497,373.09 C-263.368,364.695 -250.33,378.895 -270.497,390.003 C-275.611,387.169 -284.32,380.433 -280.427,373.497 C-279.356,371.59 -277.703,370.861 -275.654,370.52 z" fill="#FFFFFF"/>
      <path d="M-159.148,360.667 C-148.218,360.667 -140.752,368.57 -140.752,379.041 C-140.752,389.57 -148.207,397.483 -159.148,397.483 C-170.034,397.483 -177.478,389.559 -177.478,379.041 C-177.478,368.581 -170.023,360.667 -159.148,360.667 L-159.148,360.667 z M-159.149,370.787 C-163.912,370.945 -165.869,374.781 -166.181,379.041 C-166.181,383.924 -163.421,387.363 -159.148,387.363 C-154.86,387.363 -152.049,383.902 -152.048,379.041 C-152.049,374.24 -154.867,370.787 -159.148,370.787 z" fill="#000000"/>
      <path d="M-199.881,360.667 C-188.951,360.667 -181.485,368.57 -181.485,379.041 C-181.485,389.57 -188.94,397.483 -199.881,397.483 C-210.767,397.483 -218.21,389.559 -218.21,379.041 C-218.21,368.581 -210.756,360.667 -199.881,360.667 z M-199.881,370.787 C-204.146,370.787 -206.914,374.218 -206.914,379.041 C-206.914,383.924 -204.153,387.363 -199.881,387.363 C-195.593,387.363 -192.781,383.902 -192.781,379.041 C-192.781,374.24 -195.6,370.787 -199.881,370.787 z" fill="#000000"/>
      <path d="M-221.431,360.667 L-220.211,361.899 L-220.211,370.301 L-221.696,371.503 C-222.196,371.391 -222.913,371.329 -223.779,371.329 C-226.213,371.483 -228.912,374.197 -230.544,376.141 L-230.544,395.438 L-231.764,396.67 L-240.285,396.67 L-241.505,395.438 L-241.505,362.712 L-240.285,361.48 L-231.764,361.48 L-230.544,362.712 L-230.544,364.298 C-228.03,361.931 -224.794,360.896 -221.431,360.667 L-221.431,360.667 z" fill="#000000"/>
      <path d="M-93.993,360.849 C-88.092,362.162 -86.07,366.138 -85.667,371.791 L-85.667,395.438 L-86.887,396.67 L-95.475,396.67 L-96.696,395.438 L-96.696,374.772 C-96.695,372.081 -97.776,370.787 -100.306,370.787 C-102.56,370.808 -104.375,372.155 -105.796,373.8 L-105.796,395.438 L-107.016,396.67 L-115.604,396.67 L-116.824,395.438 L-116.824,374.772 C-116.824,372.081 -117.905,370.787 -120.435,370.787 C-122.703,370.813 -124.499,372.222 -125.924,373.869 L-125.924,395.438 L-127.144,396.67 L-135.665,396.67 L-136.885,395.438 L-136.885,362.712 L-135.665,361.48 L-127.144,361.48 L-125.924,362.712 L-125.924,364.11 C-123.328,361.786 -119.92,360.901 -116.543,360.667 C-113.734,360.7 -110.982,361.422 -108.868,363.406 C-108.217,364.018 -107.813,364.852 -107.286,365.574 C-104.385,362.383 -100.613,360.958 -96.415,360.667 L-93.993,360.849 z" fill="#000000"/>
    </g>
    <g>
      <path d="M155.202,354.515 C164.548,354.515 170.58,358.947 170.58,368.146 L170.579,389.286 L169.36,390.518 L160.839,390.518 L159.619,389.286 L159.619,388.552 C157.046,390.633 153.771,391.182 150.573,391.331 C143.859,391.331 138.081,386.555 138.081,379.258 C138.081,371.752 143.617,367.456 150.573,367.456 C153.807,367.44 156.945,368.216 159.619,370.066 L159.619,368.281 C159.619,365.728 157.969,362.735 154.285,362.735 C151.082,362.735 147.604,363.713 145.095,366.062 L143.204,365.763 L139.983,361.502 L140.239,359.972 C144.273,356.381 149.578,354.515 155.203,354.515 z M153.766,374.522 C150.724,374.523 148.258,376.598 148.258,379.158 C148.258,381.718 150.724,383.794 153.766,383.794 C155.692,383.726 157.57,382.909 158.627,381.165 C159.138,380.321 159.205,380.048 159.275,379.158 C159.475,376.606 156.809,374.523 153.766,374.523 z" fill="#FFFFFF"/>
      <path d="M183.529,355.328 L184.671,356.127 L191.983,375.817 L199.295,356.127 L200.437,355.328 L209.629,355.328 L210.761,357.019 L197.745,389.745 L196.613,390.518 L187.421,390.518 L186.289,389.745 L173.272,357.019 L174.404,355.328 L183.529,355.328 z" fill="#FFFFFF"/>
      <path d="M129.033,339.244 L129.011,339.247 C132.813,339.248 137.152,341.293 139.316,343.619 L141.617,346.171 L141.071,347.883 C138.867,348.51 136.993,349.912 135.137,351.213 L133.18,351.035 C131.222,348.114 126.095,349.435 126.358,353.259 L126.358,355.328 L133.175,355.328 L134.395,356.56 L134.395,364.08 L133.175,365.312 L126.248,365.312 L126.248,389.286 L125.028,390.518 L116.44,390.518 L115.22,389.286 L115.22,365.312 L111.785,365.312 L110.565,364.08 L110.565,356.56 L111.785,355.328 L115.22,355.328 L115.22,353.258 C115.327,351.089 115.649,348.63 116.97,346.819 C119.113,342.131 124.132,339.492 129.033,339.244 z" fill="#FFFFFF"/>
      <path d="M237.409,349.393 C250.109,349.393 260.404,359.562 260.404,372.106 C260.404,384.649 250.109,394.818 237.409,394.818 L237.369,394.817 C233.654,394.626 229.908,394.012 226.633,392.153 C225.112,392.883 223.59,393.613 222.068,394.342 C222.067,394.343 222.067,394.343 222.067,394.343 C220.034,395.318 219.13,395.751 218.001,396.293 C216.839,396.85 215.53,395.865 215.766,394.611 C216.057,393.056 216.291,391.813 216.816,389.014 L216.816,389.014 C217.136,387.312 217.455,385.61 217.775,383.908 C215.491,380.418 214.514,376.235 214.414,372.12 C214.731,359.736 223.746,350.409 236.226,349.423 L237.409,349.393 z M232.633,364.368 C230.584,364.709 228.93,365.438 227.859,367.345 C223.967,374.281 232.675,381.017 237.79,383.851 C257.956,372.743 244.918,358.543 237.79,366.938 C236.367,365.442 234.774,364.365 232.633,364.368 z" fill="#FFFFFF"/>
      <path d="M349.138,354.515 C360.068,354.515 367.534,362.418 367.534,372.889 C367.534,383.418 360.079,391.331 349.138,391.331 C338.252,391.331 330.809,383.407 330.809,372.889 C330.809,362.429 338.263,354.515 349.138,354.515 L349.138,354.515 z M349.138,364.635 C344.374,364.793 342.417,368.629 342.105,372.889 C342.105,377.772 344.866,381.211 349.138,381.211 C353.426,381.211 356.238,377.75 356.238,372.889 C356.238,368.088 353.419,364.635 349.138,364.635 z" fill="#FFFFFF"/>
      <path d="M308.405,354.515 C319.336,354.515 326.801,362.418 326.801,372.889 C326.801,383.418 319.346,391.331 308.405,391.331 C297.52,391.331 290.076,383.407 290.076,372.889 C290.076,362.429 297.53,354.515 308.405,354.515 z M308.405,364.635 C304.14,364.635 301.372,368.066 301.372,372.889 C301.372,377.772 304.133,381.211 308.405,381.211 C312.693,381.211 315.505,377.75 315.505,372.889 C315.505,368.088 312.686,364.635 308.405,364.635 z" fill="#FFFFFF"/>
      <path d="M286.855,354.515 L288.075,355.747 L288.075,364.148 L286.591,365.351 C286.09,365.239 285.373,365.177 284.507,365.177 C282.073,365.33 279.374,368.045 277.743,369.989 L277.743,389.286 L276.523,390.518 L268.002,390.518 L266.782,389.286 L266.782,356.56 L268.002,355.328 L276.523,355.328 L277.743,356.56 L277.743,358.146 C280.256,355.779 283.492,354.744 286.855,354.515 L286.855,354.515 z" fill="#FFFFFF"/>
      <path d="M414.293,354.697 C420.195,356.01 422.216,359.986 422.619,365.639 L422.619,389.286 L421.399,390.518 L412.811,390.518 L411.591,389.286 L411.591,368.62 C411.591,365.929 410.51,364.635 407.98,364.635 C405.727,364.655 403.911,366.003 402.491,367.648 L402.49,389.286 L401.271,390.518 L392.682,390.518 L391.462,389.286 L391.462,368.62 C391.463,365.929 390.382,364.635 387.852,364.635 C385.583,364.661 383.787,366.07 382.362,367.717 L382.362,389.286 L381.142,390.518 L372.621,390.518 L371.401,389.286 L371.401,356.56 L372.621,355.328 L381.142,355.328 L382.362,356.56 L382.362,357.958 C384.958,355.634 388.366,354.749 391.743,354.515 C394.552,354.548 397.304,355.27 399.418,357.254 C400.069,357.866 400.473,358.7 401.001,359.422 C403.902,356.231 407.673,354.806 411.872,354.515 L414.293,354.697 z" fill="#FFFFFF"/>
    </g>
    <g>
      <path d="M682.583,357.82 C691.929,357.82 697.96,362.252 697.96,371.451 L697.96,392.591 L696.74,393.823 L688.219,393.823 L686.999,392.591 L686.999,391.857 C684.427,393.939 681.152,394.487 677.954,394.636 C671.24,394.636 665.462,389.86 665.462,382.563 C665.462,375.057 670.998,370.762 677.954,370.761 C681.188,370.745 684.326,371.521 687,373.371 L686.999,371.587 C687,369.033 685.35,366.04 681.666,366.04 C678.463,366.04 674.985,367.019 672.476,369.367 L670.585,369.069 L667.364,364.807 L667.62,363.277 C671.654,359.687 676.959,357.82 682.583,357.82 z M681.147,377.828 C678.105,377.828 675.639,379.903 675.639,382.463 C675.639,385.024 678.105,387.099 681.147,387.099 C683.073,387.031 684.951,386.215 686.008,384.47 C686.519,383.626 686.586,383.353 686.656,382.463 C686.856,379.911 684.19,377.828 681.147,377.828 z" fill="#FFFFFF"/>
      <path d="M710.91,358.633 L712.052,359.432 L719.364,379.123 L726.676,359.432 L727.818,358.633 L737.01,358.633 L738.142,360.324 L725.126,393.05 L723.994,393.823 L714.802,393.823 L713.669,393.05 L700.653,360.324 L701.785,358.633 L710.91,358.633 z" fill="#FFFFFF"/>
      <path d="M656.414,342.549 L656.392,342.553 C660.193,342.553 664.533,344.598 666.697,346.924 L668.998,349.477 L668.452,351.188 C666.248,351.815 664.374,353.217 662.518,354.519 L660.561,354.34 C658.603,351.419 653.476,352.74 653.739,356.564 L653.739,358.633 L660.556,358.633 L661.775,359.865 L661.775,367.386 L660.556,368.618 L653.629,368.618 L653.629,392.591 L652.409,393.823 L643.821,393.823 L642.601,392.591 L642.601,368.618 L639.166,368.618 L637.946,367.386 L637.946,359.865 L639.166,358.633 L642.601,358.633 L642.601,356.563 C642.708,354.394 643.03,351.936 644.351,350.125 C646.494,345.437 651.513,342.797 656.414,342.549 z" fill="#FFFFFF"/>
      <path d="M764.79,352.699 L763.607,352.728 C751.127,353.715 742.112,363.041 741.795,375.426 C741.895,379.54 742.872,383.723 745.156,387.214 C744.836,388.915 744.517,390.617 744.197,392.319 C744.197,392.32 744.197,392.32 744.197,392.32 C743.672,395.118 743.438,396.362 743.146,397.916 C742.911,399.17 744.22,400.155 745.381,399.598 C746.511,399.056 747.415,398.623 749.448,397.648 C749.448,397.648 749.448,397.648 749.449,397.648 C750.971,396.918 752.492,396.188 754.014,395.458 C757.289,397.317 761.035,397.931 764.75,398.123 L764.79,398.123 C777.489,398.123 787.784,387.955 787.784,375.411 C787.784,362.867 777.489,352.699 764.79,352.699 z" fill="url(#Gradient_2)"/>
      <path d="M760.014,367.673 C762.155,367.671 763.748,368.747 765.171,370.243 C772.299,361.849 785.337,376.048 765.171,387.156 C760.056,384.323 751.347,377.586 755.24,370.651 C756.311,368.743 757.965,368.014 760.014,367.673 z" fill="#FFFFFF"/>
      <path d="M876.519,357.82 C887.449,357.82 894.915,365.724 894.915,376.194 C894.915,386.723 887.46,394.636 876.519,394.636 C865.633,394.636 858.19,386.713 858.19,376.194 C858.19,365.734 865.644,357.82 876.519,357.82 L876.519,357.82 z M876.519,367.94 C871.755,368.098 869.798,371.935 869.486,376.194 C869.486,381.077 872.247,384.516 876.519,384.516 C880.807,384.516 883.619,381.055 883.619,376.194 C883.619,371.393 880.8,367.94 876.519,367.94 z" fill="#FFFFFF"/>
      <path d="M835.786,357.82 C846.716,357.82 854.182,365.724 854.182,376.194 C854.182,386.723 846.727,394.636 835.786,394.636 C824.901,394.636 817.457,386.713 817.457,376.194 C817.457,365.734 824.911,357.82 835.786,357.82 z M835.786,367.94 C831.521,367.94 828.753,371.371 828.753,376.194 C828.753,381.077 831.514,384.516 835.786,384.516 C840.074,384.516 842.886,381.055 842.886,376.194 C842.886,371.393 840.067,367.94 835.786,367.94 z" fill="#FFFFFF"/>
      <path d="M814.236,357.82 L815.456,359.052 L815.456,367.454 L813.971,368.656 C813.471,368.544 812.754,368.483 811.888,368.483 C809.454,368.636 806.755,371.35 805.123,373.294 L805.123,392.591 L803.903,393.823 L795.382,393.823 L794.162,392.591 L794.162,359.865 L795.382,358.633 L803.903,358.633 L805.123,359.865 L805.123,361.451 C807.637,359.084 810.873,358.05 814.236,357.82 L814.236,357.82 z" fill="#FFFFFF"/>
      <path d="M941.674,358.002 C947.576,359.315 949.597,363.291 950,368.944 L950,392.591 L948.78,393.823 L940.192,393.823 L938.972,392.591 L938.972,371.926 C938.972,369.234 937.891,367.941 935.361,367.941 C933.108,367.961 931.292,369.308 929.872,370.953 L929.871,392.591 L928.651,393.823 L920.063,393.823 L918.843,392.591 L918.843,371.926 C918.844,369.234 917.763,367.941 915.233,367.941 C912.964,367.967 911.168,369.375 909.743,371.023 L909.743,392.591 L908.523,393.823 L900.002,393.823 L898.782,392.591 L898.782,359.865 L900.002,358.633 L908.523,358.633 L909.743,359.865 L909.743,361.264 C912.339,358.939 915.747,358.055 919.124,357.82 C921.933,357.853 924.685,358.575 926.799,360.56 C927.45,361.171 927.854,362.005 928.381,362.728 C931.282,359.536 935.054,358.111 939.253,357.82 L941.674,358.002 z" fill="#FFFFFF"/>
    </g>
  </g>
</svg>
