<?xml version="1.0" encoding="UTF-8"?>
<svg width="456px" height="103px" viewBox="0 0 456 103" version="1.1" xmlns="http://www.w3.org/2000/svg" xmlns:xlink="http://www.w3.org/1999/xlink">
    <!-- Generator: Sketch 47 (45396) - http://www.bohemiancoding.com/sketch -->
    <title>Page 1</title>
    <desc>Created with Sketch.</desc>
    <defs>
        <linearGradient x1="0%" y1="50%" x2="100.000024%" y2="50%" id="linearGradient-1">
            <stop stop-color="#7699FF" offset="0%"></stop>
            <stop stop-color="#F0B9FF" offset="100%"></stop>
        </linearGradient>
    </defs>
    <g id="Чат-заглушка" stroke="none" stroke-width="1" fill="none" fill-rule="evenodd">
        <g id="Desktop" transform="translate(-495.000000, -123.000000)">
            <g id="Page-1" transform="translate(495.000000, 123.000000)">
                <path d="M52.04741,0.0645899146 C78.9118195,2.22374865 98.3178653,22.6371832 99,49.7438321 C98.7851442,58.7497114 96.6826013,67.9055184 91.7660491,75.5444163 C92.4538709,79.2695872 93.1415747,82.9947699 93.8293256,86.7199527 C93.82942,86.7202371 93.82942,86.7202371 93.8293964,86.7204859 C94.9601798,92.8452462 95.4627489,95.5673526 96.0909868,98.9699401 C96.5977799,101.714289 93.7800421,103.870277 91.2798921,102.651136 C88.8483756,101.465529 86.9029572,100.51699 82.5262818,98.3831103 C82.5255031,98.3827205 82.5255031,98.3827205 82.5247007,98.3822785 C79.2484151,96.7849478 75.9721295,95.1876028 72.6959972,93.5899557 C65.6462135,97.6592269 57.5831151,99.0025455 49.5856769,99.421951 L49.5000531,99.4229783 C22.1619697,99.4231525 3.76127454e-05,77.1665344 0,49.7115431 C3.76127454e-05,22.2566821 22.1619697,7.10951179e-05 49.5000767,0 L52.04741,0.0645899146 Z" id="Fill-1" fill="url(#linearGradient-1)"></path>
                <g id="Group-13" transform="translate(25.000000, 25.000000)">
                    <path d="M24.9442675,49.0239279 C-21.3577887,23.6436593 8.34499803,-9.00434651 24.9442793,10.3811923 C41.3126649,-8.79986023 71.2504184,23.6436593 24.9442675,49.0239279 Z" id="Fill-3" fill="#FFFFFF"></path>
                    <path d="M359.675502,14.9438302 C370.251121,14.9439607 377.47461,22.5530302 377.474728,32.6337258 C377.47461,42.7703079 370.261508,50.3889607 359.675384,50.3888421 C349.142964,50.3889607 341.940839,42.7602265 341.940957,32.6337258 C341.940839,22.5630879 349.153351,14.9439607 359.675384,14.9438421 L359.675502,14.9438302 Z M359.675502,24.6872023 C355.548721,24.6873328 352.870675,27.9905909 352.870793,32.6337258 C352.870675,37.3346686 355.541875,40.6455886 359.675384,40.64547 C363.824354,40.6455886 366.544774,37.3135451 366.544892,32.6337258 C366.544774,28.0116433 363.817508,24.6873328 359.675384,24.6872142 L359.675502,24.6872023 Z" id="Fill-4" fill="#000000"></path>
                    <path d="M321.232105,14.9438302 C331.807843,14.9439488 339.031331,22.5530184 339.031449,32.6337258 C339.031331,42.7703079 331.818348,50.3889488 321.232105,50.3888421 C310.699685,50.3889488 303.497561,42.7602147 303.497679,32.6337258 C303.497561,22.5630879 310.710072,14.9439488 321.232105,14.9438421 L321.232105,14.9438302 Z M321.232105,24.6872023 C317.105443,24.6873209 314.427397,27.9905909 314.427515,32.6337258 C314.427397,37.3346567 317.098597,40.6455767 321.232105,40.64547 C325.381075,40.6455767 328.101495,37.3135451 328.101613,32.6337258 C328.101495,28.0116314 325.37423,24.6873209 321.232105,24.6872142 L321.232105,24.6872023 Z" id="Fill-5" fill="#000000"></path>
                    <path d="M219.47002,14.9438302 C230.045875,14.9439488 237.269364,22.5530184 237.269364,32.6337258 C237.269364,42.7703079 230.056262,50.3889488 219.47002,50.3888421 C208.937718,50.3889488 201.735593,42.7602147 201.735593,32.6337258 C201.735593,22.5630879 208.948105,14.9439488 219.47002,14.9438421 L219.47002,14.9438302 Z M219.47002,24.6872023 C215.343357,24.6873209 212.66543,27.9905909 212.66543,32.6337258 C212.66543,37.3346567 215.33663,40.6455767 219.47002,40.64547 C223.619108,40.6455767 226.339528,37.3135451 226.339528,32.6337258 C226.339528,28.0116314 223.612144,24.6873209 219.47002,24.6872142 L219.47002,24.6872023 Z" id="Fill-6" fill="#000000"></path>
                    <path d="M147.387397,14.9437116 C156.429298,14.9439726 162.26543,19.2106681 162.26543,28.0674705 L162.26543,48.4198744 L161.085102,49.6059209 L152.840511,49.6059209 L151.660184,48.4198744 L151.660184,47.7137023 C149.170754,49.7171365 146.002282,50.2454847 142.908052,50.3888658 C136.412118,50.3889726 130.821495,45.7907177 130.821495,38.76561 C130.821495,31.538993 136.178059,27.4033912 142.908052,27.4032844 C146.03722,27.3874626 149.073613,28.1348972 151.660184,29.915924 L151.660184,28.1977814 C151.660184,25.7393205 150.064262,22.85769 146.49979,22.8575833 C143.400957,22.85769 140.035489,23.7999328 137.608144,26.0605493 L135.778046,25.7737395 L132.66198,21.6707302 L132.909259,20.1976605 C136.812603,16.7410109 141.945259,14.9439726 147.387397,14.9438658 L147.387397,14.9437116 Z M145.997915,34.2064116 C143.054531,34.2064947 140.66838,36.2046153 140.668262,38.669386 C140.66838,41.1342398 143.054531,43.1323723 145.997915,43.1323367 C147.860826,43.0669381 149.678413,42.2808977 150.700577,40.6010881 C151.194898,39.7887056 151.260289,39.5259251 151.327685,38.669386 C151.520905,36.2122772 148.941534,34.2064947 145.997915,34.2064472 L145.997915,34.2064116 Z" id="Fill-7" fill="#000000"></path>
                    <path d="M251.616367,15.7264667 L252.796695,16.9125133 L252.796695,36.0255342 C252.796577,39.4059802 254.17461,40.6454937 257.394072,40.6454107 C259.720262,40.6035314 261.829508,39.5498002 263.354728,37.8002037 L263.354728,16.9125133 L264.535056,15.7264667 L272.779764,15.7264667 L273.960092,16.9125133 L273.960092,48.4198388 L272.779764,49.6058853 L264.535056,49.6058853 L263.354728,48.4198388 L263.354728,47.0453295 C260.56821,49.4278005 257.058741,50.2051116 253.49899,50.3887828 C246.18438,50.3888658 242.191331,46.2985828 242.191449,39.2873874 L242.191449,16.9125133 L243.371777,15.7264667 L251.616367,15.7264667 Z" id="Fill-8" fill="#000000"></path>
                    <path d="M300.381731,14.9439488 L301.562059,16.1299953 L301.562059,24.2188326 L300.1256,25.3765326 C299.64143,25.2686023 298.947161,25.209217 298.109482,25.2092051 C295.754374,25.3567374 293.143016,27.9702147 291.564564,29.8415826 L291.564682,48.4201116 L290.384354,49.6061581 L282.139764,49.6061581 L280.959436,48.4201116 L280.959436,16.912786 L282.139764,15.7267395 L290.384354,15.7267395 L291.564682,16.912786 L291.564682,18.4395837 C293.996275,16.1606309 297.127449,15.1649093 300.381613,14.9439726 L300.381731,14.9439488 Z" id="Fill-9" fill="#000000"></path>
                    <polygon id="Fill-10" fill="#000000" points="174.794846 15.7266328 175.899987 16.4962584 182.974518 35.4529584 190.048931 16.4962584 191.15419 15.7266328 200.047961 15.7266328 201.143305 17.3548374 188.549089 48.8620444 187.453862 49.6060514 178.560092 49.6060514 177.464748 48.8620444 164.870649 17.3548374 165.965993 15.7266328"></polygon>
                    <path d="M126.074334,15.7265142 L127.254662,16.9125607 L127.254662,24.153256 L126.074334,25.3393026 L119.372433,25.3393026 L119.372433,48.4198863 L118.192105,49.6059328 L109.882597,49.6059328 L108.702269,48.4198863 L108.702269,25.3393026 L105.378938,25.3393026 L104.19861,24.153256 L104.19861,16.9125607 L105.378938,15.7265142 L108.702269,15.7265142 L108.702269,13.733956 C108.806138,11.6452688 109.117036,9.27845372 110.395567,7.53496535 C112.468577,3.02161953 117.325272,0.480574186 122.067003,0.241609535 L122.045875,0.24504907 C125.723895,0.245760698 129.922439,2.21428953 132.016341,4.45405535 L134.24303,6.91134209 L133.714597,8.55923512 C131.581626,9.16225674 129.768879,10.5123453 127.97301,11.7654984 L126.079292,11.5932607 C124.18463,8.78144093 119.224302,10.0533453 119.478898,13.7343593 L119.478662,15.7265142 L126.074334,15.7265142 Z" id="Fill-11" fill="#000000"></path>
                    <path d="M420.373508,14.9436998 C426.979449,14.9439014 430.772315,18.716063 430.772315,25.6538895 L430.772197,48.4198626 L429.591869,49.6059091 L421.282361,49.6059091 L420.102033,48.4198626 L420.102033,28.5239323 C420.102151,25.9325156 419.056144,24.6872735 416.60838,24.6872616 C414.427961,24.7067365 412.671397,26.0036191 411.296905,27.5873826 L411.296787,48.4198626 L410.116459,49.6059091 L401.806951,49.6059091 L400.626623,48.4198626 L400.626623,28.5239323 C400.626741,25.9325156 399.580734,24.6872735 397.13297,24.6872616 C394.938151,24.7123702 393.200236,26.068567 391.821613,27.6546314 L391.821731,48.4198626 L390.641403,49.6059091 L382.396813,49.6059091 L381.216485,48.4198626 L381.216485,16.912537 L382.396813,15.7264905 L390.641403,15.7264905 L391.821731,16.912537 L391.821731,18.2591742 C394.333469,16.0211874 397.630597,15.1696179 400.898216,14.9438895 C403.615921,14.975296 406.278741,15.670604 408.323895,17.5813012 C408.953836,18.1698412 409.344761,18.9727709 409.855134,19.6685058 C412.662072,16.5957321 416.311528,15.2236779 420.373626,14.9438895 L420.373508,14.9436998 Z" id="Fill-12" fill="#000000"></path>
                </g>
            </g>
        </g>
    </g>
</svg>